<?xml version="1.0" standalone="no"?>
<svg xmlns:xlink="http://www.w3.org/1999/xlink" id="wave" style="transform:rotate(0deg); transition: 0.3s" viewBox="0 0 1440 100" version="1.1" xmlns="http://www.w3.org/2000/svg"><defs><linearGradient id="sw-gradient-0" x1="0" x2="0" y1="1" y2="0"><stop stop-color="rgba(168.387, 175.838, 189.293, 1)" offset="0%"/><stop stop-color="rgba(197.021, 201.872, 212.061, 1)" offset="100%"/></linearGradient></defs><path style="transform:translate(0, 0px); opacity:1" fill="url(#sw-gradient-0)" d="M0,30L40,35C80,40,160,50,240,46.7C320,43,400,27,480,20C560,13,640,17,720,30C800,43,880,67,960,78.3C1040,90,1120,90,1200,75C1280,60,1360,30,1440,18.3C1520,7,1600,13,1680,15C1760,17,1840,13,1920,20C2000,27,2080,43,2160,56.7C2240,70,2320,80,2400,81.7C2480,83,2560,77,2640,63.3C2720,50,2800,30,2880,21.7C2960,13,3040,17,3120,18.3C3200,20,3280,20,3360,18.3C3440,17,3520,13,3600,20C3680,27,3760,43,3840,43.3C3920,43,4000,27,4080,31.7C4160,37,4240,63,4320,68.3C4400,73,4480,57,4560,41.7C4640,27,4720,13,4800,8.3C4880,3,4960,7,5040,11.7C5120,17,5200,23,5280,31.7C5360,40,5440,50,5520,60C5600,70,5680,80,5720,85L5760,90L5760,100L5720,100C5680,100,5600,100,5520,100C5440,100,5360,100,5280,100C5200,100,5120,100,5040,100C4960,100,4880,100,4800,100C4720,100,4640,100,4560,100C4480,100,4400,100,4320,100C4240,100,4160,100,4080,100C4000,100,3920,100,3840,100C3760,100,3680,100,3600,100C3520,100,3440,100,3360,100C3280,100,3200,100,3120,100C3040,100,2960,100,2880,100C2800,100,2720,100,2640,100C2560,100,2480,100,2400,100C2320,100,2240,100,2160,100C2080,100,2000,100,1920,100C1840,100,1760,100,1680,100C1600,100,1520,100,1440,100C1360,100,1280,100,1200,100C1120,100,1040,100,960,100C880,100,800,100,720,100C640,100,560,100,480,100C400,100,320,100,240,100C160,100,80,100,40,100L0,100Z"/></svg>